              Fred-The Movie 2010 DVDRip Xvid fasamoo LKRG 

RIPPER                           : fasamoo
Format                           : AVI
Format/Info                      : Audio Video Interleave
File size                        : 700 MiB
Duration                         : 1h 22mn
Overall bit rate                 : 1 182 Kbps
Writing application              : VirtualDubMod 1.5.4.1 (build 2178/release)
Writing library                  : VirtualDubMod build 2178/release
Language                         : English
Subtitles                        : None
Genre                            : Comedy

Video
ID                               : 0
Format                           : MPEG-4 Visual
Format profile                   : Advanced Simple@L5
Format settings, BVOP            : Yes
Format settings, QPel            : No
Format settings, GMC             : No warppoints
Format settings, Matrix          : Custom
Codec ID                         : XVID
Codec ID/Hint                    : XviD
Duration                         : 1h 22mn
Bit rate                         : 1 058 Kbps
Width                            : 608 pixels
Height                           : 352 pixels
Display aspect ratio             : 16:9
Frame rate                       : 25.000 fps
Color space                      : YUV
Chroma subsampling               : 4:2:0
Bit depth                        : 8 bits
Scan type                        : Progressive
Bits/(Pixel*Frame)               : 0.198
Stream size                      : 627 MiB (90%)
Writing library                  : XviD 1.2.1 (UTC 2008-12-04)

Audio
ID                               : 1
Format                           : MPEG Audio
Format version                   : Version 1
Format profile                   : Layer 3
Mode                             : Joint stereo
Mode extension                   : MS Stereo
Codec ID                         : 55
Codec ID/Hint                    : MP3
Duration                         : 1h 22mn
Bit rate mode                    : Variable
Bit rate                         : 111 Kbps
Nominal bit rate                 : 128 Kbps
Channel(s)                       : 2 channels
Sampling rate                    : 48.0 KHz
Stream size                      : 65.7 MiB (9%)
Alignment                        : Aligned on interleaves
Interleave, duration             : 24 ms (0.60 video frame)
Interleave, preload duration     : 166 ms
Writing library                  : LAME3.98r
Encoding settings                : -m j -V 4 -q 2 -lowpass 17 --abr 128


                                 PLOT

Join Fred in his hilarious journey to find Judy! Hey, it s Fred in his first movie! And he is in love with the girl next door, Judy (Pixie Lott). But his nemesis neighbor, Kevin, thwarts all attempts Fred makes to see her, and when he finally succeeds in making it over to Judy s house she s moved! With the advice of his super cool dad (John Cena), Fred embarks on an epic journey full of gut-busting fun to find her. So, jump in the kiddie pool and join Fred, Bertha (Jennette McCurdy), and the whole gang for a hilariously good time in FRED: THE MOVIE!

  







                                 IMBD
                     
                    http://www.imdb.com/title/tt1595842/
 
http://leetleech.org/images/42232795218576711368.png 
http://leetleech.org/images/19928185332411623924.png 
http://leetleech.org/images/97645599825921276301.png 
http://leetleech.org/images/02781871107404758321.png 
http://leetleech.org/images/04145056280265980967.png 
http://leetleech.org/images/82792884240716029233.png
